Coordinates
version=1
nRows=14
nColumns=40
inDegrees=yes

Units are S.I. units (second, meters, Newtons, ...)
If the header above contains a line with 'inDegrees', this indicates whether rotational values are in degrees (yes) or radians (no).

endheader
time	pelvis_tilt	pelvis_list	pelvis_rotation	pelvis_tx	pelvis_ty	pelvis_tz	hip_flexion_r	hip_adduction_r	hip_rotation_r	knee_angle_r	knee_angle_r_beta	ankle_angle_r	subtalar_angle_r	mtp_angle_r	hip_flexion_l	hip_adduction_l	hip_rotation_l	knee_angle_l	knee_angle_l_beta	ankle_angle_l	subtalar_angle_l	mtp_angle_l	lumbar_extension	lumbar_bending	lumbar_rotation	arm_flex_r	arm_add_r	arm_rot_r	elbow_flex_r	pro_sup_r	wrist_flex_r	wrist_dev_r	arm_flex_l	arm_add_l	arm_rot_l	elbow_flex_l	pro_sup_l	wrist_flex_l	wrist_dev_l
      2.00000000	    -16.36742796	     28.47712818	    -89.99080782	      0.27248556	      0.83094127	     -0.51354010	      9.46859577	     23.37126569	    -39.98124522	      0.02246620	      0.00039211	     16.54421797	      0.00000000	      0.00000000	     62.39344082	      8.03917632	     39.98128961	     48.66018471	      0.84928044	     -8.88039945	      0.00000000	      0.00000000	     30.70341331	     24.87691403	    -88.18284353	     53.65196827	   -112.80761399	     45.44405556	     26.16148034	     54.90416357	      0.00000000	      0.00000000	     71.87871403	    -80.71303626	      1.50664286	     18.60532895	     43.76226270	      0.00000000	      0.00000000
      2.00500000	    -16.19889274	     28.48723910	    -89.99079365	      0.27269475	      0.83092652	     -0.51353250	      9.50281786	     23.18728415	    -39.98126207	      0.02250559	      0.00039280	     16.56286104	      0.00000000	      0.00000000	     62.37163065	      8.22449340	     39.98128493	     48.62225502	      0.84861844	     -8.84771541	      0.00000000	      0.00000000	     30.68743539	     24.70372344	    -88.05804061	     53.73868160	   -112.74087398	     45.25795055	     25.82504337	     54.76612791	      0.00000000	      0.00000000	     71.41884259	    -80.71008640	      1.51764947	     18.94653320	     43.76459672	      0.00000000	      0.00000000
      2.01000000	    -16.39446532	     28.48789615	    -89.99080429	      0.27246029	      0.83095011	     -0.51354349	      9.47638916	     23.39949759	    -39.98124747	      0.02246787	      0.00039214	     16.53796938	      0.00000000	      0.00000000	     62.40795634	      8.00577192	     39.98128623	     48.65298729	      0.84915482	     -8.90905140	      0.00000000	      0.00000000	     30.68940035	     24.92128333	    -88.12584803	     53.72808833	   -112.58954933	     45.13472627	     25.77478704	     54.67447417	      0.00000000	      0.00000000	     71.06853984	    -80.85066983	      1.44800624	     18.94708218	     43.74841193	      0.00000000	      0.00000000
      2.01500000	    -16.37223601	     28.51073439	    -89.99080410	      0.27249054	      0.83090467	     -0.51353201	      9.50561422	     23.37767630	    -39.98125081	      0.02246837	      0.00039215	     16.54438209	      0.00000000	      0.00000000	     62.43049416	      8.03136453	     39.98128620	     48.65602390	      0.84920782	     -8.89397232	      0.00000000	      0.00000000	     30.74960980	     24.90984922	    -88.24373465	     53.32006860	   -112.77068250	     45.30286618	     26.10095719	     54.65925175	      0.00000000	      0.00000000	     71.10651533	    -80.87043985	      1.06541760	     18.79856239	     43.73488191	      0.00000000	      0.00000000
      2.02000000	    -16.40187168	     28.49437453	    -89.99080473	      0.27245419	      0.83093266	     -0.51354865	      9.48634012	     23.40692365	    -39.98124700	      0.02246288	      0.00039205	     16.51148948	      0.00000000	      0.00000000	     62.41960922	      7.99895568	     39.98128782	     48.65728264	      0.84922979	     -8.92048734	      0.00000000	      0.00000000	     30.69274716	     24.94190981	    -88.14980421	     53.52582527	   -112.50777394	     44.97066543	     25.67374772	     54.44080415	      0.00000000	      0.00000000	     70.34907154	    -80.97163889	      1.00946072	     19.15917326	     43.72357605	      0.00000000	      0.00000000
      2.02500000	    -16.32078082	     28.49121009	    -89.99080325	      0.27257350	      0.83096726	     -0.51351012	      9.48676592	     23.31963550	    -39.98125416	      0.02246661	      0.00039212	     16.56912826	      0.00000000	      0.00000000	     62.39060461	      8.08954024	     39.98126505	     48.63065692	      0.84876508	     -8.90452387	      0.00000000	      0.00000000	     30.69001195	     24.87176383	    -88.10786101	     53.59266471	   -112.40100737	     44.82451289	     25.47090766	     54.33090874	      0.00000000	      0.00000000	     69.93896641	    -81.00581874	      1.00511121	     19.24388136	     43.71362973	      0.00000000	      0.00000000
      2.03000000	    -16.41205825	     28.49080396	    -89.99080328	      0.27243115	      0.83095159	     -0.51353672	      9.47937278	     23.42066139	    -39.98124618	      0.02246759	      0.00039213	     16.52968218	      0.00000000	      0.00000000	     62.41541455	      7.98418860	     39.98128560	     48.65948784	      0.84926828	     -8.92885791	      0.00000000	      0.00000000	     30.66934520	     24.95890439	    -88.13314224	     53.61984462	   -112.29492527	     44.58900004	     25.41490801	     54.19314297	      0.00000000	      0.00000000	     69.50052887	    -81.13027296	      0.88309351	     19.43052577	     43.70395523	      0.00000000	      0.00000000
      2.03500000	    -16.37575522	     28.48692039	    -89.99080379	      0.27249911	      0.83094686	     -0.51349794	      9.47535034	     23.37996281	    -39.98125081	      0.02246028	      0.00039201	     16.54509801	      0.00000000	      0.00000000	     62.40440987	      8.02479043	     39.98128947	     48.65207503	      0.84913890	     -8.92024828	      0.00000000	      0.00000000	     30.66778121	     24.92973884	    -88.12161872	     53.62421508	   -112.24895222	     44.48041519	     25.34687607	     54.10561159	      0.00000000	      0.00000000	     69.23002431	    -81.16182819	      0.78001851	     19.49765277	     43.69698886	      0.00000000	      0.00000000
      2.04000000	    -16.24996612	     28.49040799	    -89.99080076	      0.27260679	      0.83094441	     -0.51350152	      9.49612364	     23.24731377	    -39.98126254	      0.02249500	      0.00039261	     16.56991614	      0.00000000	      0.00000000	     62.38321980	      8.15820236	     39.98127589	     48.62259280	      0.84862434	     -8.89099132	      0.00000000	      0.00000000	     30.66157129	     24.79567466	    -88.03974508	     53.69104265	   -112.19297900	     44.32649015	     25.10969598	     53.99410899	      0.00000000	      0.00000000	     68.87404917	    -81.17101324	      0.76671901	     19.70343397	     43.69538418	      0.00000000	      0.00000000
      2.04500000	    -16.34285560	     28.49225042	    -89.99080408	      0.27250153	      0.83095657	     -0.51349709	      9.48616676	     23.35210379	    -39.98125695	      0.02246157	      0.00039203	     16.60018036	      0.00000000	      0.00000000	     62.39852462	      8.05625686	     39.98128464	     48.63348920	      0.84881451	     -8.92101250	      0.00000000	      0.00000000	     30.66201286	     24.90437007	    -88.06207504	     53.75512137	   -112.03064414	     44.14628192	     24.97965711	     53.86643216	      0.00000000	      0.00000000	     68.42033806	    -81.27696551	      0.69100668	     19.74169222	     43.67907461	      0.00000000	      0.00000000
      2.05000000	    -16.36316667	     28.51260436	    -89.99080764	      0.27246023	      0.83093950	     -0.51346766	      9.49963105	     23.37205136	    -39.98125659	      0.02245150	      0.00039185	     16.52701744	      0.00000000	      0.00000000	     62.42040634	      8.03332215	     39.98128668	     48.64689148	      0.84904843	     -8.88543740	      0.00000000	      0.00000000	     30.75227536	     24.94417224	    -88.29102512	     53.04242569	   -112.78585320	     45.36175479	     26.11034460	     54.12297738	      0.00000000	      0.00000000	     69.79264303	    -80.91765932	     -0.60552836	     19.15716996	     43.70832786	      0.00000000	      0.00000000
      2.05500000	    -16.37037480	     28.50243959	    -89.99080747	      0.27250307	      0.83094859	     -0.51347224	      9.48869142	     23.37620845	    -39.98125683	      0.02244904	      0.00039181	     16.53203260	      0.00000000	      0.00000000	     62.41470378	      8.03152710	     39.98128547	     48.64769958	      0.84906253	     -8.91928208	      0.00000000	      0.00000000	     30.70829311	     24.96217522	    -88.20580140	     53.31446601	   -112.51495705	     44.96041852	     25.70961482	     53.91064028	      0.00000000	      0.00000000	     68.99895927	    -81.06821245	     -0.48240443	     19.49418649	     43.69584110	      0.00000000	      0.00000000
      2.06000000	    -16.33725479	     28.50237622	    -89.99080606	      0.27249580	      0.83097051	     -0.51347983	      9.49500011	     23.34508345	    -39.98126074	      0.02245938	      0.00039199	     16.57460909	      0.00000000	      0.00000000	     62.40434807	      8.05970177	     39.98128669	     48.62939783	      0.84874311	     -8.90986288	      0.00000000	      0.00000000	     30.70435421	     24.92664314	    -88.18590216	     53.39515257	   -112.40594834	     44.81816292	     25.55302437	     53.81560937	      0.00000000	      0.00000000	     68.63165994	    -81.11984600	     -0.45147292	     19.54569188	     43.68566869	      0.00000000	      0.00000000
      2.06500000	    -16.34408507	     28.51222221	    -89.99080799	      0.27249163	      0.83094948	     -0.51344202	      9.50102302	     23.35184892	    -39.98125980	      0.02244754	      0.00039178	     16.52413482	      0.00000000	      0.00000000	     62.41494196	      8.05353931	     39.98128472	     48.63837478	      0.84889978	     -8.89034972	      0.00000000	      0.00000000	     30.75363740	     24.94282152	    -88.29322707	     52.99714417	   -112.96090003	     45.69350476	     26.32196545	     54.02733093	      0.00000000	      0.00000000	     69.56382755	    -80.95878126	     -0.67730740	     19.20943358	     43.72738140	      0.00000000	      0.00000000
